<svg width="167" height="56" viewBox="0 0 167 56" fill="none" xmlns="http://www.w3.org/2000/svg">
<path d="M55.6667 0H1.74046e-05V56H55.6667V0Z" fill="#2474A8"/>
<path d="M26.1129 49.0001L26.9158 32.3848L21.4103 48.0771L18.1988 46.8078L25.31 31.6924L14.299 44.154L11.7757 41.6155L24.163 30.5386L9.13763 37.6924L7.87596 34.4617L23.4749 28.9232L6.95837 29.7309V26.2694L23.4749 27.1924L7.87596 21.5386L9.13763 18.4232L24.163 25.5771L11.7757 14.3848L14.299 11.9617L25.31 24.3078L18.1988 9.30783L21.4103 7.92321L26.9158 23.7309L26.1129 7.00014H29.5538L28.6363 23.6155L34.2564 7.92321L37.3533 9.30783L30.242 24.3078L41.3677 11.9617L43.7764 14.3848L31.5037 25.5771L46.4144 18.4232L47.7908 21.5386L32.0772 27.1924L48.7084 26.2694V29.7309L32.0772 28.9232L47.7908 34.4617L46.4144 37.6924L31.5037 30.5386L43.7764 41.6155L41.3677 44.154L30.242 31.6924L37.3533 46.8078L34.2564 48.0771L28.6363 32.3848L29.5538 49.0001H26.1129Z" fill="#E5914C"/>
<path d="M167 0H111.333V56H167V0Z" fill="#1D8B73"/>
<path d="M139.167 7L160.078 28.0364L139.167 49.0729L118.255 28.0364L139.167 7Z" fill="#E5914C"/>
<path d="M111.333 0H55.6667V56H111.333V0Z" fill="#E6914D"/>
<path fill-rule="evenodd" clip-rule="evenodd" d="M83.5 49C95.029 49 104.375 39.598 104.375 28C104.375 16.402 95.029 7 83.5 7C71.9711 7 62.625 16.402 62.625 28C62.625 39.598 71.9711 49 83.5 49ZM83.5 50.75C95.9897 50.75 106.115 40.5645 106.115 28C106.115 15.4355 95.9897 5.25 83.5 5.25C71.0103 5.25 60.8854 15.4355 60.8854 28C60.8854 40.5645 71.0103 50.75 83.5 50.75Z" fill="#0E120D"/>
<path fill-rule="evenodd" clip-rule="evenodd" d="M83.5 43.75C92.1467 43.75 99.1563 36.6985 99.1563 28C99.1563 19.3015 92.1467 12.25 83.5 12.25C74.8533 12.25 67.8438 19.3015 67.8438 28C67.8438 36.6985 74.8533 43.75 83.5 43.75ZM83.5 45.5C93.1075 45.5 100.896 37.665 100.896 28C100.896 18.335 93.1075 10.5 83.5 10.5C73.8926 10.5 66.1042 18.335 66.1042 28C66.1042 37.665 73.8926 45.5 83.5 45.5Z" fill="#0E120D"/>
<path fill-rule="evenodd" clip-rule="evenodd" d="M83.5 38.5C89.2645 38.5 93.9375 33.799 93.9375 28C93.9375 22.201 89.2645 17.5 83.5 17.5C77.7355 17.5 73.0625 22.201 73.0625 28C73.0625 33.799 77.7355 38.5 83.5 38.5ZM83.5 40.25C90.2252 40.25 95.6771 34.7655 95.6771 28C95.6771 21.2345 90.2252 15.75 83.5 15.75C76.7748 15.75 71.3229 21.2345 71.3229 28C71.3229 34.7655 76.7748 40.25 83.5 40.25Z" fill="#0E120D"/>
<path fill-rule="evenodd" clip-rule="evenodd" d="M83.5 33.25C86.3823 33.25 88.7188 30.8995 88.7188 28C88.7188 25.1005 86.3823 22.75 83.5 22.75C80.6178 22.75 78.2813 25.1005 78.2813 28C78.2813 30.8995 80.6178 33.25 83.5 33.25ZM83.5 35C87.343 35 90.4584 31.866 90.4584 28C90.4584 24.134 87.343 21 83.5 21C79.657 21 76.5417 24.134 76.5417 28C76.5417 31.866 79.657 35 83.5 35Z" fill="#0E120D"/>
</svg>
