<svg width="120" height="40" viewBox="0 0 120 40" fill="none" xmlns="http://www.w3.org/2000/svg">
<path d="M40 0H-1.19209e-06V40H40V0Z" fill="#2474A8"/>
<path d="M18.7637 35.0001L19.3407 23.132L15.3846 34.3408L13.0769 33.4342L18.1868 22.6375L10.2747 31.5386L8.46154 29.7254L17.3626 21.8133L6.56593 26.9232L5.65934 24.6155L16.8681 20.6594L5 21.2364V18.7638L16.8681 19.4232L5.65934 15.3847L6.56593 13.1594L17.3626 18.2693L8.46154 10.2748L10.2747 8.54406L18.1868 17.3627L13.0769 6.64846L15.3846 5.65945L19.3407 16.9507L18.7637 5.00011H21.2363L20.5769 16.8682L24.6154 5.65945L26.8407 6.64846L21.7308 17.3627L29.7253 8.54406L31.456 10.2748L22.6374 18.2693L33.3516 13.1594L34.3407 15.3847L23.0495 19.4232L35 18.7638V21.2364L23.0495 20.6594L34.3407 24.6155L33.3516 26.9232L22.6374 21.8133L31.456 29.7254L29.7253 31.5386L21.7308 22.6375L26.8407 33.4342L24.6154 34.3408L20.5769 23.132L21.2363 35.0001H18.7637Z" fill="#E5914C"/>
<path d="M120 0H80V40H120V0Z" fill="#1D8B73"/>
<path d="M100 5L115.026 20.026L100 35.052L84.974 20.026L100 5Z" fill="#E5914C"/>
<path d="M80 0H40V40H80V0Z" fill="#E6914D"/>
<path fill-rule="evenodd" clip-rule="evenodd" d="M60 35C68.2843 35 75 28.2843 75 20C75 11.7157 68.2843 5 60 5C51.7157 5 45 11.7157 45 20C45 28.2843 51.7157 35 60 35ZM60 36.25C68.9746 36.25 76.25 28.9746 76.25 20C76.25 11.0254 68.9746 3.75 60 3.75C51.0254 3.75 43.75 11.0254 43.75 20C43.75 28.9746 51.0254 36.25 60 36.25Z" fill="#0E120D"/>
<path fill-rule="evenodd" clip-rule="evenodd" d="M60 31.25C66.2132 31.25 71.25 26.2132 71.25 20C71.25 13.7868 66.2132 8.75 60 8.75C53.7868 8.75 48.75 13.7868 48.75 20C48.75 26.2132 53.7868 31.25 60 31.25ZM60 32.5C66.9036 32.5 72.5 26.9036 72.5 20C72.5 13.0964 66.9036 7.5 60 7.5C53.0964 7.5 47.5 13.0964 47.5 20C47.5 26.9036 53.0964 32.5 60 32.5Z" fill="#0E120D"/>
<path fill-rule="evenodd" clip-rule="evenodd" d="M60 27.5C64.1421 27.5 67.5 24.1421 67.5 20C67.5 15.8579 64.1421 12.5 60 12.5C55.8579 12.5 52.5 15.8579 52.5 20C52.5 24.1421 55.8579 27.5 60 27.5ZM60 28.75C64.8325 28.75 68.75 24.8325 68.75 20C68.75 15.1675 64.8325 11.25 60 11.25C55.1675 11.25 51.25 15.1675 51.25 20C51.25 24.8325 55.1675 28.75 60 28.75Z" fill="#0E120D"/>
<path fill-rule="evenodd" clip-rule="evenodd" d="M60 23.75C62.0711 23.75 63.75 22.0711 63.75 20C63.75 17.9289 62.0711 16.25 60 16.25C57.9289 16.25 56.25 17.9289 56.25 20C56.25 22.0711 57.9289 23.75 60 23.75ZM60 25C62.7614 25 65 22.7614 65 20C65 17.2386 62.7614 15 60 15C57.2386 15 55 17.2386 55 20C55 22.7614 57.2386 25 60 25Z" fill="#0E120D"/>
</svg>
